<?xml version="1.0" encoding="UTF-8"?>
<svg version="1.1" xmlns="http://www.w3.org/2000/svg" width="64" height="64">
<path d="M0 0 C0.66 0 1.32 0 2 0 C3.32 2.97 4.64 5.94 6 9 C6.99 8.67 7.98 8.34 9 8 C8.979375 7.030625 8.95875 6.06125 8.9375 5.0625 C9 2 9 2 10 1 C11.4067522 0.90195149 12.81835136 0.87201814 14.22851562 0.87060547 C15.57496155 0.86587723 15.57496155 0.86587723 16.9486084 0.86105347 C18.41264099 0.86408981 18.41264099 0.86408981 19.90625 0.8671875 C20.9012854 0.86623077 21.8963208 0.86527405 22.92150879 0.86428833 C25.02986718 0.8636064 27.13822765 0.86546156 29.24658203 0.86962891 C32.48605027 0.87497697 35.72537985 0.86968433 38.96484375 0.86328125 C41.00781281 0.86394203 43.05078178 0.86522319 45.09375 0.8671875 C46.06977173 0.86516327 47.04579346 0.86313904 48.0513916 0.86105347 C48.94902222 0.86420563 49.84665283 0.86735779 50.77148438 0.87060547 C51.9627594 0.87179886 51.9627594 0.87179886 53.17810059 0.87301636 C55 1 55 1 56 2 C56.10422936 3.7996366 56.13854102 5.603366 56.14526367 7.40600586 C56.15164352 8.56067856 56.15802338 9.71535126 56.16459656 10.90501404 C56.16570938 12.16225784 56.1668222 13.41950165 56.16796875 14.71484375 C56.17296135 16.63666222 56.17296135 16.63666222 56.17805481 18.5973053 C56.18405192 21.3134953 56.18589413 24.02965345 56.18530273 26.74584961 C56.1852011 30.23090592 56.19885216 33.71575855 56.21607494 37.20076656 C56.22985066 40.51796233 56.22928324 43.8351197 56.23046875 47.15234375 C56.23765427 48.40756332 56.24483978 49.6627829 56.25224304 50.95603943 C56.24916641 52.11386429 56.24608978 53.27168915 56.24291992 54.46459961 C56.24434494 55.48750595 56.24576996 56.51041229 56.24723816 57.5643158 C56 60 56 60 54 62 C52.14050293 62.24723816 52.14050293 62.24723816 49.85742188 62.24291992 C49.00313599 62.24599655 48.1488501 62.24907318 47.26867676 62.25224304 C45.88271301 62.24146477 45.88271301 62.24146477 44.46875 62.23046875 C43.52189331 62.23001053 42.57503662 62.22955231 41.5994873 62.2290802 C39.59544626 62.2260561 37.59140759 62.2181651 35.58740234 62.20581055 C32.51261099 62.18757479 29.43812098 62.18530069 26.36328125 62.18554688 C24.41926822 62.18063098 22.47525724 62.17480234 20.53125 62.16796875 C19.60727417 62.16685593 18.68329834 62.1657431 17.73132324 62.16459656 C16.87703735 62.15821671 16.02275146 62.15183685 15.14257812 62.14526367 C14.012453 62.13954597 14.012453 62.13954597 12.85949707 62.13371277 C11 62 11 62 9 61 C9 58.69 9 56.38 9 54 C8.01 54 7.02 54 6 54 C5.505 52.515 5.505 52.515 5 51 C5.66 50.01 6.32 49.02 7 48 C7.66 48 8.32 48 9 48 C9 46.68 9 45.36 9 44 C7.68 44 6.36 44 5 44 C4.34 45.32 3.68 46.64 3 48 C1.35 48 -0.3 48 -2 48 C-2.33 45.69 -2.66 43.38 -3 41 C-3.99 40.67 -4.98 40.34 -6 40 C-6 33.07 -6 26.14 -6 19 C-5.01 19 -4.02 19 -3 19 C-3.05220703 17.69675781 -3.05220703 17.69675781 -3.10546875 16.3671875 C-3.37434095 4.92091388 -3.37434095 4.92091388 0 0 Z M5 12 C5 14.97 5 17.94 5 21 C7.07977297 19.77409808 7.07977297 19.77409808 9 18 C9 16.68 9 15.36 9 14 C8.01 14 7.02 14 6 14 C5.67 13.34 5.34 12.68 5 12 Z M5 22 C5 24.97 5 27.94 5 31 C7.07977297 29.77409808 7.07977297 29.77409808 9 28 C9 26.68 9 25.36 9 24 C8.01 24 7.02 24 6 24 C5.67 23.34 5.34 22.68 5 22 Z M5 32 C5 34.97 5 37.94 5 41 C7.07977297 39.77409808 7.07977297 39.77409808 9 38 C9 36.68 9 35.36 9 34 C8.01 34 7.02 34 6 34 C5.67 33.34 5.34 32.68 5 32 Z " fill="#D7E1FB" transform="translate(7,1)"/>
<path d="M0 0 C0.66 0 1.32 0 2 0 C3.32 2.97 4.64 5.94 6 9 C6.99 8.67 7.98 8.34 9 8 C8.979375 7.030625 8.95875 6.06125 8.9375 5.0625 C9 2 9 2 10 1 C11.4067522 0.90195149 12.81835136 0.87201814 14.22851562 0.87060547 C15.57496155 0.86587723 15.57496155 0.86587723 16.9486084 0.86105347 C18.41264099 0.86408981 18.41264099 0.86408981 19.90625 0.8671875 C20.9012854 0.86623077 21.8963208 0.86527405 22.92150879 0.86428833 C25.02986718 0.8636064 27.13822765 0.86546156 29.24658203 0.86962891 C32.48605027 0.87497697 35.72537985 0.86968433 38.96484375 0.86328125 C41.00781281 0.86394203 43.05078178 0.86522319 45.09375 0.8671875 C46.06977173 0.86516327 47.04579346 0.86313904 48.0513916 0.86105347 C48.94902222 0.86420563 49.84665283 0.86735779 50.77148438 0.87060547 C51.9627594 0.87179886 51.9627594 0.87179886 53.17810059 0.87301636 C55 1 55 1 56 2 C56.10422936 3.7996366 56.13854102 5.603366 56.14526367 7.40600586 C56.15164352 8.56067856 56.15802338 9.71535126 56.16459656 10.90501404 C56.16570938 12.16225784 56.1668222 13.41950165 56.16796875 14.71484375 C56.17296135 16.63666222 56.17296135 16.63666222 56.17805481 18.5973053 C56.18405192 21.3134953 56.18589413 24.02965345 56.18530273 26.74584961 C56.1852011 30.23090592 56.19885216 33.71575855 56.21607494 37.20076656 C56.22985066 40.51796233 56.22928324 43.8351197 56.23046875 47.15234375 C56.23765427 48.40756332 56.24483978 49.6627829 56.25224304 50.95603943 C56.24916641 52.11386429 56.24608978 53.27168915 56.24291992 54.46459961 C56.24434494 55.48750595 56.24576996 56.51041229 56.24723816 57.5643158 C56 60 56 60 54 62 C52.14050293 62.24723816 52.14050293 62.24723816 49.85742188 62.24291992 C49.00313599 62.24599655 48.1488501 62.24907318 47.26867676 62.25224304 C45.88271301 62.24146477 45.88271301 62.24146477 44.46875 62.23046875 C43.52189331 62.23001053 42.57503662 62.22955231 41.5994873 62.2290802 C39.59544626 62.2260561 37.59140759 62.2181651 35.58740234 62.20581055 C32.51261099 62.18757479 29.43812098 62.18530069 26.36328125 62.18554688 C24.41926822 62.18063098 22.47525724 62.17480234 20.53125 62.16796875 C19.60727417 62.16685593 18.68329834 62.1657431 17.73132324 62.16459656 C16.87703735 62.15821671 16.02275146 62.15183685 15.14257812 62.14526367 C14.012453 62.13954597 14.012453 62.13954597 12.85949707 62.13371277 C11 62 11 62 9 61 C9 58.69 9 56.38 9 54 C8.01 54 7.02 54 6 54 C5.505 52.515 5.505 52.515 5 51 C5.66 50.01 6.32 49.02 7 48 C7.66 48 8.32 48 9 48 C9 46.68 9 45.36 9 44 C7.68 44 6.36 44 5 44 C4.34 45.32 3.68 46.64 3 48 C1.35 48 -0.3 48 -2 48 C-2.33 45.69 -2.66 43.38 -3 41 C-3.99 40.67 -4.98 40.34 -6 40 C-6 33.07 -6 26.14 -6 19 C-5.01 19 -4.02 19 -3 19 C-3.05220703 17.69675781 -3.05220703 17.69675781 -3.10546875 16.3671875 C-3.37434095 4.92091388 -3.37434095 4.92091388 0 0 Z M13 5 C12.67 6.32 12.34 7.64 12 9 C12.99 9.33 13.98 9.66 15 10 C15 10.99 15 11.98 15 13 C14.01 13.33 13.02 13.66 12 14 C12 15.65 12 17.3 12 19 C12.99 19.33 13.98 19.66 15 20 C15 20.99 15 21.98 15 23 C14.01 23.33 13.02 23.66 12 24 C12 25.65 12 27.3 12 29 C12.99 29.33 13.98 29.66 15 30 C15 30.99 15 31.98 15 33 C14.01 33.33 13.02 33.66 12 34 C12 35.65 12 37.3 12 39 C12.99 39.33 13.98 39.66 15 40 C15 40.99 15 41.98 15 43 C13.515 43.495 13.515 43.495 12 44 C12 45.65 12 47.3 12 49 C12.99 49.33 13.98 49.66 15 50 C15 50.99 15 51.98 15 53 C13.515 53.495 13.515 53.495 12 54 C12.33 55.32 12.66 56.64 13 58 C18.53588533 58.02464775 24.071739 58.04283496 29.60766602 58.05493164 C31.4924373 58.05997244 33.37720465 58.06680498 35.26196289 58.07543945 C37.96501636 58.08751617 40.66801831 58.09323068 43.37109375 58.09765625 C44.21900986 58.10281754 45.06692596 58.10797882 45.9405365 58.11329651 C47.96071068 58.11349195 49.98077934 58.06206211 52 58 C53.64087745 56.35912255 53.12739755 54.48168938 53.12939453 52.22070312 C53.13412277 50.69407043 53.13412277 50.69407043 53.13894653 49.13659668 C53.1369223 48.02933228 53.13489807 46.92206787 53.1328125 45.78125 C53.13376923 44.65303833 53.13472595 43.52482666 53.13571167 42.36242676 C53.13639368 39.97159774 53.13453797 37.58076689 53.13037109 35.18994141 C53.12502316 31.51590849 53.13031543 27.84199783 53.13671875 24.16796875 C53.13605797 21.85156223 53.13477682 19.53515578 53.1328125 17.21875 C53.13483673 16.1114856 53.13686096 15.00422119 53.13894653 13.86340332 C53.13579437 12.84564819 53.13264221 11.82789307 53.12939453 10.77929688 C53.12859894 9.87852417 53.12780334 8.97775146 53.12698364 8.04968262 C53.22744606 6.00676931 53.22744606 6.00676931 52 5 C49.1156618 4.91134792 46.25537842 4.88478704 43.37109375 4.90234375 C42.50686295 4.9037587 41.64263214 4.90517365 40.75221252 4.90663147 C37.98060708 4.91224761 35.2090812 4.92480281 32.4375 4.9375 C30.5631522 4.94251292 28.68880315 4.94707619 26.81445312 4.95117188 C22.20960456 4.96222228 17.60481579 4.9794977 13 5 Z M5 12 C5 14.97 5 17.94 5 21 C7.07977297 19.77409808 7.07977297 19.77409808 9 18 C9 16.68 9 15.36 9 14 C8.01 14 7.02 14 6 14 C5.67 13.34 5.34 12.68 5 12 Z M5 22 C5 24.97 5 27.94 5 31 C7.07977297 29.77409808 7.07977297 29.77409808 9 28 C9 26.68 9 25.36 9 24 C8.01 24 7.02 24 6 24 C5.67 23.34 5.34 22.68 5 22 Z M5 32 C5 34.97 5 37.94 5 41 C7.07977297 39.77409808 7.07977297 39.77409808 9 38 C9 36.68 9 35.36 9 34 C8.01 34 7.02 34 6 34 C5.67 33.34 5.34 32.68 5 32 Z " fill="#4972D4" transform="translate(7,1)"/>
<path d="M0 0 C1.34644592 -0.00472824 1.34644592 -0.00472824 2.72009277 -0.009552 C4.18412537 -0.00651566 4.18412537 -0.00651566 5.67773438 -0.00341797 C6.67276978 -0.00437469 7.66780518 -0.00533142 8.69299316 -0.00631714 C10.80135155 -0.00699907 12.90971203 -0.0051439 15.01806641 -0.00097656 C18.25753465 0.0043715 21.49686423 -0.00092114 24.73632812 -0.00732422 C26.77929718 -0.00666344 28.82226615 -0.00538228 30.86523438 -0.00341797 C31.8412561 -0.0054422 32.81727783 -0.00746643 33.82287598 -0.009552 C34.72050659 -0.00639984 35.61813721 -0.00324768 36.54296875 0 C37.73424377 0.00119339 37.73424377 0.00119339 38.94958496 0.00241089 C40.77148438 0.12939453 40.77148438 0.12939453 41.77148438 1.12939453 C41.87571374 2.92903113 41.91002539 4.73276053 41.91674805 6.53540039 C41.9231279 7.69007309 41.92950775 8.84474579 41.93608093 10.03440857 C41.93719376 11.29165237 41.93830658 12.54889618 41.93945312 13.84423828 C41.94444572 15.76605675 41.94444572 15.76605675 41.94953918 17.72669983 C41.95553629 20.44288983 41.9573785 23.15904798 41.95678711 25.87524414 C41.95668547 29.36030045 41.97033653 32.84515308 41.98755932 36.33016109 C42.00133504 39.64735686 42.00076762 42.96451423 42.00195312 46.28173828 C42.00913864 47.53695786 42.01632416 48.79217743 42.02372742 50.08543396 C42.02065079 51.24325882 42.01757416 52.40108368 42.0144043 53.59399414 C42.01582932 54.61690048 42.01725433 55.63980682 42.01872253 56.69371033 C41.77148438 59.12939453 41.77148438 59.12939453 39.77148438 61.12939453 C37.9119873 61.37663269 37.9119873 61.37663269 35.62890625 61.37231445 C34.77462036 61.37539108 33.92033447 61.37846771 33.04016113 61.38163757 C31.65419739 61.3708593 31.65419739 61.3708593 30.24023438 61.35986328 C29.29337769 61.35940506 28.346521 61.35894684 27.37097168 61.35847473 C25.36693063 61.35545063 23.36289197 61.34755963 21.35888672 61.33520508 C18.28409537 61.31696932 15.20960536 61.31469522 12.13476562 61.31494141 C10.19075259 61.31002551 8.24674161 61.30419687 6.30273438 61.29736328 C5.37875854 61.29625046 4.45478271 61.29513763 3.50280762 61.29399109 C2.64852173 61.28761124 1.79423584 61.28123138 0.9140625 61.2746582 C0.16064575 61.27084641 -0.592771 61.26703461 -1.36901855 61.2631073 C-3.22851562 61.12939453 -3.22851562 61.12939453 -5.22851562 60.12939453 C-5.22851562 57.81939453 -5.22851562 55.50939453 -5.22851562 53.12939453 C-6.21851563 53.12939453 -7.20851563 53.12939453 -8.22851562 53.12939453 C-8.72351563 51.64439453 -8.72351563 51.64439453 -9.22851562 50.12939453 C-8.56851562 49.13939453 -7.90851562 48.14939453 -7.22851562 47.12939453 C-6.56851562 47.12939453 -5.90851562 47.12939453 -5.22851562 47.12939453 C-4.89851563 45.80939453 -4.56851562 44.48939453 -4.22851562 43.12939453 C-4.22851562 44.77939453 -4.22851562 46.42939453 -4.22851562 48.12939453 C-5.21851563 48.62439453 -5.21851563 48.62439453 -6.22851562 49.12939453 C-6.22851562 49.78939453 -6.22851562 50.44939453 -6.22851562 51.12939453 C-3.31199388 51.29620562 -3.31199388 51.29620562 -0.22851562 51.12939453 C0.43148438 50.46939453 1.09148438 49.80939453 1.77148438 49.12939453 C1.44148438 50.44939453 1.11148437 51.76939453 0.77148438 53.12939453 C-0.21851563 53.12939453 -1.20851563 53.12939453 -2.22851562 53.12939453 C-1.89851563 54.11939453 -1.56851562 55.10939453 -1.22851562 56.12939453 C11.64148438 56.12939453 24.51148438 56.12939453 37.77148438 56.12939453 C37.77148438 39.29939453 37.77148438 22.46939453 37.77148438 5.12939453 C24.90148437 5.12939453 12.03148437 5.12939453 -1.22851562 5.12939453 C-1.55851562 6.11939453 -1.88851563 7.10939453 -2.22851562 8.12939453 C-1.23851562 8.45939453 -0.24851562 8.78939453 0.77148438 9.12939453 C-1.86851563 9.12939453 -4.50851563 9.12939453 -7.22851562 9.12939453 C-7.55851563 10.44939453 -7.88851563 11.76939453 -8.22851562 13.12939453 C-8.22851562 11.47939453 -8.22851562 9.82939453 -8.22851562 8.12939453 C-7.23851562 7.79939453 -6.24851562 7.46939453 -5.22851562 7.12939453 C-5.24914062 6.16001953 -5.26976562 5.19064453 -5.29101562 4.19189453 C-5.19714735 -0.40765096 -4.16663428 0.00417403 0 0 Z " fill="#456FC7" transform="translate(21.228515625,1.87060546875)"/>
<path d="M0 0 C1.34644592 -0.00472824 1.34644592 -0.00472824 2.72009277 -0.009552 C4.18412537 -0.00651566 4.18412537 -0.00651566 5.67773438 -0.00341797 C6.67276978 -0.00437469 7.66780518 -0.00533142 8.69299316 -0.00631714 C10.80135155 -0.00699907 12.90971203 -0.0051439 15.01806641 -0.00097656 C18.25753465 0.0043715 21.49686423 -0.00092114 24.73632812 -0.00732422 C26.77929718 -0.00666344 28.82226615 -0.00538228 30.86523438 -0.00341797 C31.8412561 -0.0054422 32.81727783 -0.00746643 33.82287598 -0.009552 C34.72050659 -0.00639984 35.61813721 -0.00324768 36.54296875 0 C37.73424377 0.00119339 37.73424377 0.00119339 38.94958496 0.00241089 C40.77148438 0.12939453 40.77148438 0.12939453 41.77148438 1.12939453 C41.87571374 2.92903113 41.91002539 4.73276053 41.91674805 6.53540039 C41.9231279 7.69007309 41.92950775 8.84474579 41.93608093 10.03440857 C41.93719376 11.29165237 41.93830658 12.54889618 41.93945312 13.84423828 C41.94444572 15.76605675 41.94444572 15.76605675 41.94953918 17.72669983 C41.95553629 20.44288983 41.9573785 23.15904798 41.95678711 25.87524414 C41.95668547 29.36030045 41.97033653 32.84515308 41.98755932 36.33016109 C42.00133504 39.64735686 42.00076762 42.96451423 42.00195312 46.28173828 C42.00913864 47.53695786 42.01632416 48.79217743 42.02372742 50.08543396 C42.02065079 51.24325882 42.01757416 52.40108368 42.0144043 53.59399414 C42.01582932 54.61690048 42.01725433 55.63980682 42.01872253 56.69371033 C41.77148438 59.12939453 41.77148438 59.12939453 39.77148438 61.12939453 C37.9119873 61.37663269 37.9119873 61.37663269 35.62890625 61.37231445 C34.77462036 61.37539108 33.92033447 61.37846771 33.04016113 61.38163757 C31.65419739 61.3708593 31.65419739 61.3708593 30.24023438 61.35986328 C29.29337769 61.35940506 28.346521 61.35894684 27.37097168 61.35847473 C25.36693063 61.35545063 23.36289197 61.34755963 21.35888672 61.33520508 C18.28409537 61.31696932 15.20960536 61.31469522 12.13476562 61.31494141 C10.19075259 61.31002551 8.24674161 61.30419687 6.30273438 61.29736328 C5.37875854 61.29625046 4.45478271 61.29513763 3.50280762 61.29399109 C2.64852173 61.28761124 1.79423584 61.28123138 0.9140625 61.2746582 C0.16064575 61.27084641 -0.592771 61.26703461 -1.36901855 61.2631073 C-3.22851562 61.12939453 -3.22851562 61.12939453 -5.22851562 60.12939453 C-5.22851562 57.81939453 -5.22851562 55.50939453 -5.22851562 53.12939453 C-4.89851563 53.12939453 -4.56851562 53.12939453 -4.22851562 53.12939453 C-3.89851563 54.77939453 -3.56851562 56.42939453 -3.22851562 58.12939453 C10.96148437 58.45939453 25.15148438 58.78939453 39.77148438 59.12939453 C39.44148438 40.31939453 39.11148438 21.50939453 38.77148438 2.12939453 C24.91148438 2.12939453 11.05148438 2.12939453 -3.22851562 2.12939453 C-3.55851562 4.10939453 -3.88851563 6.08939453 -4.22851562 8.12939453 C-5.21851563 8.62439453 -5.21851563 8.62439453 -6.22851562 9.12939453 C-7.36202096 11.1460928 -7.36202096 11.1460928 -8.22851562 13.12939453 C-8.22851562 11.47939453 -8.22851562 9.82939453 -8.22851562 8.12939453 C-7.23851562 7.79939453 -6.24851562 7.46939453 -5.22851562 7.12939453 C-5.24914062 6.16001953 -5.26976562 5.19064453 -5.29101562 4.19189453 C-5.19714735 -0.40765096 -4.16663428 0.00417403 0 0 Z " fill="#3863CB" transform="translate(21.228515625,1.87060546875)"/>
<path d="M0 0 C0.928125 0.061875 1.85625 0.12375 2.8125 0.1875 C2.8125 0.8475 2.8125 1.5075 2.8125 2.1875 C1.843125 2.31125 0.87375 2.435 -0.125 2.5625 C-1.135625 2.76875 -2.14625 2.975 -3.1875 3.1875 C-3.5175 3.8475 -3.8475 4.5075 -4.1875 5.1875 C-2.5375 5.5175 -0.8875 5.8475 0.8125 6.1875 C0.8125 10.1475 0.8125 14.1075 0.8125 18.1875 C-4.44027166 20.4771697 -8.69210005 20.27558919 -14.1875 19.1875 C-14.8475 18.8575 -15.5075 18.5275 -16.1875 18.1875 C-16.1875 14.2275 -16.1875 10.2675 -16.1875 6.1875 C-13.68098958 5.50390625 -11.17447917 4.8203125 -8.66796875 4.13671875 C-4.85790388 2.67869392 -4.22680163 0.24863539 0 0 Z " fill="#AECCFE" transform="translate(43.1875,33.8125)"/>
<path d="M0 0 C2.97 0 5.94 0 9 0 C8.67 1.32 8.34 2.64 8 4 C7.01 4 6.02 4 5 4 C5 5.65 5 7.3 5 9 C6.32 9.33 7.64 9.66 9 10 C8.67 11.32 8.34 12.64 8 14 C7.01 14 6.02 14 5 14 C5 15.65 5 17.3 5 19 C6.32 19.33 7.64 19.66 9 20 C8.67 21.32 8.34 22.64 8 24 C7.01 24 6.02 24 5 24 C5 25.65 5 27.3 5 29 C6.32 29.33 7.64 29.66 9 30 C8.67 31.32 8.34 32.64 8 34 C7.01 34 6.02 34 5 34 C5 35.65 5 37.3 5 39 C5.99 39 6.98 39 8 39 C7.67 40.32 7.34 41.64 7 43 C5.02 43 3.04 43 1 43 C1 41.68 1 40.36 1 39 C1.66 39 2.32 39 3 39 C3 37.35 3 35.7 3 34 C2.01 34 1.02 34 0 34 C0.33 32.35 0.66 30.7 1 29 C1.66 29 2.32 29 3 29 C3 27.35 3 25.7 3 24 C2.01 24 1.02 24 0 24 C0.33 22.35 0.66 20.7 1 19 C1.66 19 2.32 19 3 19 C3 17.35 3 15.7 3 14 C2.01 14 1.02 14 0 14 C0.33 12.35 0.66 10.7 1 9 C1.66 9 2.32 9 3 9 C3 7.35 3 5.7 3 4 C2.01 4 1.02 4 0 4 C0 2.68 0 1.36 0 0 Z " fill="#5572C9" transform="translate(14,11)"/>
<path d="M0 0 C1.65 0 3.3 0 5 0 C5 11.22 5 22.44 5 34 C3.35 34 1.7 34 0 34 C0 22.78 0 11.56 0 0 Z " fill="#A1BEF5" transform="translate(5,10)"/>
<path d="M0 0 C1.77206192 0.00015919 3.54412846 0.00585754 5.31616211 0.01586914 C6.24698105 0.01728409 7.17779999 0.01869904 8.13682556 0.02015686 C11.12241777 0.02577367 14.10793615 0.03832899 17.09350586 0.05102539 C19.11238499 0.05603823 21.13126529 0.06060151 23.15014648 0.06469727 C28.11046158 0.07574856 33.07072118 0.09302444 38.03100586 0.11352539 C38.52600586 2.09352539 38.52600586 2.09352539 39.03100586 4.11352539 C25.50100586 4.11352539 11.97100586 4.11352539 -1.96899414 4.11352539 C-2.29899414 5.10352539 -2.62899414 6.09352539 -2.96899414 7.11352539 C-1.97899414 7.44352539 -0.98899414 7.77352539 0.03100586 8.11352539 C-2.27899414 8.11352539 -4.58899414 8.11352539 -6.96899414 8.11352539 C-6.30899414 7.78352539 -5.64899414 7.45352539 -4.96899414 7.11352539 C-4.98961914 6.14415039 -5.01024414 5.17477539 -5.03149414 4.17602539 C-4.93787322 -0.41139992 -4.77044486 0.13644934 0 0 Z " fill="#4E75C9" transform="translate(21.968994140625,2.886474609375)"/>
<path d="M0 0 C0.66 0 1.32 0 2 0 C4.69707634 6.55004254 6.53699151 11.88486245 6 19 C6.99 18.67 7.98 18.34 9 18 C9.73323796 15.98491642 9.73323796 15.98491642 10 14 C10 15.65 10 17.3 10 19 C9.34 19.33 8.68 19.66 8 20 C6.86649466 22.01669827 6.86649466 22.01669827 6 24 C6 23.34 6 22.68 6 22 C5.34 22 4.68 22 4 22 C4 28.6 4 35.2 4 42 C3.67 42 3.34 42 3 42 C3 31.11 3 20.22 3 9 C1.02 9 -0.96 9 -3 9 C-2.5020163 5.26512223 -2.12508244 3.18762365 0 0 Z " fill="#4067D1" transform="translate(7,1)"/>
<path d="M0 0 C2.97 0 5.94 0 9 0 C8.67 1.32 8.34 2.64 8 4 C7.01 4 6.02 4 5 4 C5 5.65 5 7.3 5 9 C5.99 9 6.98 9 8 9 C7.67 10.32 7.34 11.64 7 13 C5.02 13 3.04 13 1 13 C1 11.68 1 10.36 1 9 C1.66 9 2.32 9 3 9 C3 7.35 3 5.7 3 4 C2.01 4 1.02 4 0 4 C0 2.68 0 1.36 0 0 Z " fill="#5572C9" transform="translate(14,11)"/>
<path d="M0 0 C0.33 0 0.66 0 1 0 C1.33 2.31 1.66 4.62 2 7 C2.99 6.67 3.98 6.34 5 6 C5.73323796 3.98491642 5.73323796 3.98491642 6 2 C6 3.65 6 5.3 6 7 C5.01 7.495 5.01 7.495 4 8 C2.03191281 11.06146896 1.80009165 13.40164967 2 17 C2.99 16.67 3.98 16.34 5 16 C5.73323796 13.98491642 5.73323796 13.98491642 6 12 C6 13.65 6 15.3 6 17 C5.34 17.33 4.68 17.66 4 18 C3.690625 18.61875 3.38125 19.2375 3.0625 19.875 C1.97094732 22.05810535 0.79288485 23.37010468 -1 25 C-1.5625 23.0625 -1.5625 23.0625 -2 21 C-1.67 20.67 -1.34 20.34 -1 20 C-0.84344973 18.51361008 -0.74933057 17.02050873 -0.68359375 15.52734375 C-0.64169922 14.62822266 -0.59980469 13.72910156 -0.55664062 12.80273438 C-0.51732422 11.85720703 -0.47800781 10.91167969 -0.4375 9.9375 C-0.37272461 8.5134082 -0.37272461 8.5134082 -0.30664062 7.06054688 C-0.20020724 4.70718647 -0.09818992 2.35371646 0 0 Z " fill="#345DCE" transform="translate(11,23)"/>
<path d="M0 0 C0.1875 3.375 0.1875 3.375 0 7 C-3 9 -3 9 -6 9 C-6 6.36 -6 3.72 -6 1 C-3 0 -3 0 0 0 Z " fill="#DBE8FC" transform="translate(42,43)"/>
<path d="M0 0 C2.97 0.495 2.97 0.495 6 1 C6 3.64 6 6.28 6 9 C4.02 8.34 2.04 7.68 0 7 C0 4.69 0 2.38 0 0 Z " fill="#DBE8FC" transform="translate(28,43)"/>
<path d="M0 0 C0.66 0 1.32 0 2 0 C2.66 2.31 3.32 4.62 4 7 C2.35 7.33 0.7 7.66 -1 8 C-1.04241723 5.66705225 -1.04092937 3.33297433 -1 1 C-0.67 0.67 -0.34 0.34 0 0 Z " fill="#7493DD" transform="translate(7,1)"/>
<path d="M0 0 C1.65 0 3.3 0 5 0 C5.33 1.65 5.66 3.3 6 5 C4.35 5 2.7 5 1 5 C0.67 3.35 0.34 1.7 0 0 Z " fill="#7D7ABE" transform="translate(4,44)"/>
<path d="M0 0 C2.64 0 5.28 0 8 0 C7.67 0.99 7.34 1.98 7 3 C5.02 3 3.04 3 1 3 C0.67 2.01 0.34 1.02 0 0 Z " fill="#EDA2A9" transform="translate(14,51)"/>
<path d="M0 0 C2.64 0 5.28 0 8 0 C7.67 0.99 7.34 1.98 7 3 C5.02 3 3.04 3 1 3 C0.67 2.01 0.34 1.02 0 0 Z " fill="#EDA2A9" transform="translate(14,41)"/>
<path d="M0 0 C-3 2 -3 2 -6.1875 1.625 C-7.115625 1.41875 -8.04375 1.2125 -9 1 C-9 0.34 -9 -0.32 -9 -1 C-5.23375329 -2.25541557 -3.62811066 -1.37061958 0 0 Z " fill="#D5E4FC" transform="translate(40,41)"/>
<path d="M0 0 C2.64 0 5.28 0 8 0 C7.67 0.99 7.34 1.98 7 3 C5.02 3 3.04 3 1 3 C0.67 2.01 0.34 1.02 0 0 Z " fill="#EDA2A9" transform="translate(14,31)"/>
<path d="M0 0 C2.64 0 5.28 0 8 0 C7.67 0.99 7.34 1.98 7 3 C5.02 3 3.04 3 1 3 C0.67 2.01 0.34 1.02 0 0 Z " fill="#EDA2A9" transform="translate(14,21)"/>
<path d="M0 0 C2.64 0 5.28 0 8 0 C7.67 0.99 7.34 1.98 7 3 C5.02 3 3.04 3 1 3 C0.67 2.01 0.34 1.02 0 0 Z " fill="#EDA2A9" transform="translate(14,11)"/>
</svg>
